<?xml version="1.0" encoding="UTF-8"?> <svg xmlns="http://www.w3.org/2000/svg" width="189" height="54" viewBox="0 0 189 54" fill="none"><g clip-path="url(#clip0)"><path d="M129.377 12.2503c1.394-1.3898 2.383-1.7821 2.968-1.1993a2.7723 2.7723 0 0 1 .427 2.8132c-.337 1.2665-.371 2.0399-.101 2.3089.071.0851.171.141.281.1569a.4834.4834 0 0 1 .281.1569c.196.2823.295.6207.281.9639.06.3317-.012.6737-.202.9527a3.4385 3.4385 0 0 1-2.193.5828 3.0189 3.0189 0 0 1-2.248-.5044c-.368-.3661-.48-1.3972-.338-3.0934a5.8599 5.8599 0 0 1 .844-3.1382z" fill="#1E1D1D"></path><path d="M6.7123 29.2976L3.789 47.8244l1.1918 1.7821 14.7062.1233-2.6759-3.2728-5.0033-4.6849-2.6759-5.1893-2.6196-7.2852z" fill="#E30613"></path><path d="M87.0682 27.5492l-4.9358-4.8867-1.1019 2.5554-5.453 20.477 4.6435.7061 7.9827-1.4234 6.7798 1.4234-4.8796-11.9477-2.2374-3.9564-.7983-2.9477zM111.219 23.1781l-2.485-4.2927-4.25 2.0399-5.4529 20.4769 4.7109-.6388 7.848 1.3449 6.262-1.4346-4.295-10.513-1.551-4.0237-.787-2.9589z" fill="#EDC315"></path><path d="M179.038 31.741l-5.16-.4708-2.226-2.32-5.588 5.3462-1.732 8.0697 5.678 5.6152 8.669.7398 3.564-4.1134 3.699-4.853-1.608-4.5056-5.296-3.5081z" fill="#216DB5"></path><path d="M22.9701 53.2042a22.9693 22.9693 0 0 1-4.621-.7957 23.1697 23.1697 0 0 0-4.6323-.7958h-1.3492l-3.4292.2242-5.0257.2353C1.3042 52.0722 0 50.8954 0 48.5417a4.746 4.746 0 0 1 .7983-1.6027 8.0742 8.0742 0 0 0 .922-1.7036 78.712 78.712 0 0 0 2.0575-10.2553C5.007 24.1158 5.689 12.609 5.824.4595A5.3444 5.3444 0 0 0 7.1395.2242 5.8972 5.8972 0 0 1 8.455 0c.3822 0 .8545.381 1.4279 1.1208a3.4143 3.4143 0 0 1 .8545 1.7036 5.213 5.213 0 0 1-.5622 1.7148 5.1328 5.1328 0 0 0-.5734 1.8157c-.1574 1.2217-.3036 2.6675-.461 4.3375a28350.4638 28350.4638 0 0 1-1.3717 19.2777L6.1726 47.7347c1.3717.68 4.4561 1.0237 9.2532 1.0312h3.2044a11.4232 11.4232 0 0 0 1.8888-.2242 10.419 10.419 0 0 1 1.8777-.2353 6.69 6.69 0 0 1 3.373 1.3673v2.2416a3.9003 3.9003 0 0 1-1.2667.9319 3.9107 3.9107 0 0 1-1.5329.357zM46.8621 48.1943a12.3672 12.3672 0 0 0-.5734 1.9389 1.8863 1.8863 0 0 1-.7289.6889 1.8942 1.8942 0 0 1-.9801.219h-1.1243l-2.5185.2242c-2.1362.1569-3.373.2353-3.7665.2353-1.6753 0-4.2163-1.3449-7.6005-4.0461-3.3842-2.7011-5.1494-4.6961-5.2281-5.985a41.9776 41.9776 0 0 1-.1125-4.5505c0-9.5716 5.8653-14.9663 17.5958-16.1843.3036.3811.8433 1.1208 1.6078 2.1632l3.0807 4.2142c1.8364 2.5106 2.7508 3.9564 2.7433 4.3375a3.1448 3.1448 0 0 1-.7982 1.8157 2.1569 2.1569 0 0 1-.6782.7003 2.1638 2.1638 0 0 1-.9184.3308.732.732 0 0 1-.6296-.2354.766.766 0 0 0-.6296-.2241c-1.3717 0-4.3699 1.2926-8.9947 3.8779a69.75 69.75 0 0 0-6.9708 4.2142c2.9982 3.9452 6.2737 5.9178 9.8266 5.9178 1.9001 0 3.373-1.4346 4.2275-4.3263a42.6626 42.6626 0 0 0 1.2817-5.3574 6.2438 6.2438 0 0 1 1.9451-.5604 3.7715 3.7715 0 0 1 2.2487 1.02 26.924 26.924 0 0 0 .742 2.9589c.2977.8892.5085 1.8051.6297 2.7347a34.3689 34.3689 0 0 1-3.6766 3.878zM38.632 25.2964c-2.9009-.0812-5.721.959-7.8703 2.9028a9.7624 9.7624 0 0 0-2.4414 3.4356 9.7337 9.7337 0 0 0-.7629 4.141 1.8435 1.8435 0 0 0 .1329.7408c.0948.2352.237.4485.418.6266a130.833 130.833 0 0 0 14.9648-7.061c-1.589-3.1905-3.0694-4.7858-4.4411-4.7858zM120.652 53.6638c-1.45 0-2.327-.8406-2.631-2.5106-.146-.751-.304-1.7485-.45-2.9589a88.3271 88.3271 0 0 1-5.835-16.061 103.8406 103.8406 0 0 0-3.317-11.7348 86.96 86.96 0 0 0-9.3655 28.4795 3.5092 3.5092 0 0 1-1.2367 1.7036 3.2408 3.2408 0 0 1-1.8327 1.0311c-1.5965 0-2.5072-.4931-2.7433-1.4794-1.5966-6.1495-2.7771-10.7821-3.5417-13.8979a124.2118 124.2118 0 0 0-6.8584-12.0822c-1.6115 6.1494-2.8371 10.8007-3.6766 13.9539a85.1903 85.1903 0 0 0-2.2486 13.3375 2.8775 2.8775 0 0 1-.7983 1.6476 2.1676 2.1676 0 0 1-.6439.6419 2.1737 2.1737 0 0 1-.8515.3219 4.4057 4.4057 0 0 1-2.1137-.6836c-.7983-.4484-1.1918-.9415-1.1918-1.4795a3.814 3.814 0 0 1 .6409-1.7596 6.5632 6.5632 0 0 0 .7983-1.7149c1.4466-8.5031 3.0881-14.929 4.9245-19.2777a8.75 8.75 0 0 1-.1012-1.9053c.3823-3.4147.9145-7.1507 1.5966-11.208.2248-1.2105 1.1018-1.8157 2.6309-1.8157-.6071 0 .2249.3026 2.5185.9079.5285.381 1.0569 1.5242 1.5966 3.4184.2248 1.0647.4609 2.1295.6858 3.1943a7.707 7.707 0 0 0 1.8776 3.0149c1.1918 1.401 1.9339 2.3313 2.2487 2.7908a72.6913 72.6913 0 0 1 2.6871 7.061c.9445 2.8917 1.7315 5.2453 2.3387 7.061 1.1243-.9751 1.9788-2.7235 2.5185-5.2341.9144-4.1768 1.4091-6.34 1.4841-6.4894.3071-.538 1.2591-2.7049 2.8561-6.5006a30.8256 30.8256 0 0 0 2.248-6.949 12.7914 12.7914 0 0 0-.112-1.4234c-.064-.472-.102-.9472-.113-1.4234 0-2.3537.99-3.5305 2.969-3.5305a8.403 8.403 0 0 1 1.607.2241c.486.1265.983.2017 1.485.2242.307 2.6675.61 4.7559.91 6.2653a90.7818 90.7818 0 0 0 4.115 14.3574c.915 2.4284 2.515 6.538 4.801 12.3287a76.877 76.877 0 0 1 2.968 8.0922c.012 1.3786-.944 2.0623-2.844 2.0623zM135.223 50.5255c-.416.7285-.899 1.1208-1.428 1.1208a6.6503 6.6503 0 0 1-3.541-1.8269c.303-2.4321.494-4.3263.573-5.6936-.236-2.7348-.573-5.929-1.034-9.5716-.607-4.5505-.911-6.6464-.911-6.2653.047-.3353.174-.6545.369-.9313.196-.2768.455-.5031.755-.6602a3.3132 3.3132 0 0 1 1.878-.7958c.358.0537.701.1811 1.006.3741.306.193.569.4473.77.7467a2.6876 2.6876 0 0 1 .855 1.939 17.1318 17.1318 0 0 0-.911 2.8468 41.2605 41.2605 0 0 0 .191 8.5405c.461 2.1183.832 3.721 1.125 4.7858.364 1.1604.668 2.3388.91 3.5305a3.9052 3.9052 0 0 1-.607 1.8605zM160.363 29.5666c-.6.4936-1.338.791-2.113.8518a6.3462 6.3462 0 0 1-2.058-.6276 6.5694 6.5694 0 0 0-2.249-.6277c-2.136 0-3.811 1.1881-5.025 3.5418a14.2437 14.2437 0 0 0-.922 6.0298c0 .3811.922 1.9054 2.743 4.5617 2.136 3.1158 3.545 5.2789 4.228 6.4894a8.3473 8.3473 0 0 1-2.249 1.8269 3.3184 3.3184 0 0 1-1.666-.2922 3.301 3.301 0 0 1-1.302-1.0752 69.71 69.71 0 0 1-4.352-7.4084c-3.987-7.6364-5.981-13.2927-5.981-16.9689 0-1.3001.832-1.939 2.518-1.939 1.687 0 2.508.9527 2.508 2.8468v2.2416a4.943 4.943 0 0 0 .573 2.6227l2.631-2.6227a70.405 70.405 0 0 1 2.519-2.3873c1.896-1.599 3.395-2.3985 4.497-2.3985a6.6403 6.6403 0 0 1 2.339.7958 6.5869 6.5869 0 0 0 2.349.807c.304 0 .473 0 .506-.1794.034-.1793.214-.1681.518-.1681.303 0 .539.3026 1.124.9079v1.401c.034.6164-.337 1.1992-1.136 1.7708zM188.888 42.0411a30.3 30.3 0 0 1-7.77 8.5405 5.5648 5.5648 0 0 1-3.429 1.0311 19.822 19.822 0 0 1-8.342-2.5106c-3.816-1.8979-6.102-3.9863-6.859-6.2652a13.4219 13.4219 0 0 1-.573-4.2142c0-3.6389 1.907-7.0386 5.723-10.1993 3.815-3.1606 7.585-4.7372 11.31-4.7297.56.0439 1.113.1415 1.653.2914a8.5786 8.5786 0 0 0 1.777.2802 6.2745 6.2745 0 0 1 1.709 2.5106 3.7708 3.7708 0 0 1-1.155 1.012c-.451.2545-.95.4137-1.465.4674a3.8887 3.8887 0 0 1-1.484-.4035 4.0874 4.0874 0 0 0-1.372-.3923c-3.326.0956-6.489 1.4595-8.837 3.8107-2.822 2.5443-4.228 5.3462-4.228 8.3724 0 2.2416 1.181 4.0685 3.542 5.4807a12.0573 12.0573 0 0 0 6.532 1.9502 4.206 4.206 0 0 1 1.203.2354c.364.1233.742.1986 1.125.2241.989 0 2.488-1.2142 4.497-3.6426 1.675-2.1295 2.519-3.5305 2.519-4.2254a7.5604 7.5604 0 0 0-1.035-2.9028c-.686-1.3226-1.293-1.9839-1.832-1.9839a17.5057 17.5057 0 0 0-3.992.4484 5.8027 5.8027 0 0 1-.922-2.8469c.05-.6615.288-1.2951.686-1.8269.461-.6836.922-1.0199 1.372-1.0199a21.047 21.047 0 0 1 4.576.9079c1.405.2698 2.745.8063 3.946 1.5803.088 1.1359.28 2.2614.574 3.3624.449 2.051.685 3.1158.685 3.1942a21.094 21.094 0 0 1-.134 3.4633zM186.234 6.9714a3.7883 3.7883 0 0 0-2.327-1.502c-.416 0-1.282.4148-2.991 2.4434a11.3653 11.3653 0 0 0-2.08 5.3798v.5044c0 2.1519 0 2.8132 1.428 3.1046.495.0897 1.585-1.9278 2.17-3.0037.214-.3587.405-.7061.551-1.0087.944-1.5692 1.641-2.3201 2.249-2.3201a.8342.8342 0 0 1 .573.1793s0 .0561.236.0561.472-.1121.989-.5716c.518-.4596.63-.7622.63-.8967a4.21 4.21 0 0 0-1.428-2.3648z" fill="#1E1D1D"></path></g><defs><clipPath id="clip0"><path fill="#fff" d="M0 0h189v54H0z"></path></clipPath></defs></svg> 