<svg width="16" height="24" viewBox="0 0 16 24" fill="none" xmlns="http://www.w3.org/2000/svg">
<path d="M8.38095 11.1V5.16H7.61905V11.1H8.38095Z" fill="#164399"/>
<path fill-rule="evenodd" clip-rule="evenodd" d="M8 24H7.96825C3.58112 24 0 20.3582 0 15.87V8.13C0 3.66569 3.56746 0.0268815 7.95091 0H8.02104C12.4259 0.0317895 16 3.6716 16 8.13V15.87C16 20.3551 12.4067 24 8 24ZM7.98289 0.779994L7.979 0.780002C3.99733 0.788837 0.761905 4.08823 0.761905 8.13V15.87C0.761905 19.9772 3.92889 23.22 7.96825 23.22H8C11.9947 23.22 15.2381 19.9208 15.2381 15.87V8.13C15.2381 4.08332 11.9826 0.788819 7.98289 0.779994Z" fill="#164399"/>
</svg>
