<svg width="18" height="18" viewBox="0 0 18 18" fill="none" xmlns="http://www.w3.org/2000/svg">
<path d="M12.6377 0H5.3623C2.40551 0 0 2.40551 0 5.3623V12.6377C0 15.5945 2.40551 18 5.3623 18H12.6377C15.5945 18 18 15.5945 18 12.6377V5.3623C18 2.40551 15.5945 0 12.6377 0ZM16.1892 12.6377C16.1892 14.5991 14.5991 16.1892 12.6377 16.1892H5.3623C3.40088 16.1892 1.8108 14.5991 1.8108 12.6377V5.3623C1.8108 3.40084 3.40088 1.8108 5.3623 1.8108H12.6377C14.5991 1.8108 16.1892 3.40084 16.1892 5.3623V12.6377Z" fill="url(#paint0_linear)"/>
<path d="M9 4.34456C6.43299 4.34456 4.34456 6.43299 4.34456 8.99997C4.34456 11.5669 6.43299 13.6554 9 13.6554C11.567 13.6554 13.6554 11.567 13.6554 8.99997C13.6554 6.43295 11.567 4.34456 9 4.34456ZM9 11.8446C7.42894 11.8446 6.15536 10.5711 6.15536 9C6.15536 7.42894 7.42897 6.15536 9 6.15536C10.5711 6.15536 11.8446 7.42894 11.8446 9C11.8446 10.571 10.571 11.8446 9 11.8446Z" fill="url(#paint1_linear)"/>
<path d="M13.6645 5.49505C14.2806 5.49505 14.78 4.99561 14.78 4.37951C14.78 3.76342 14.2806 3.26397 13.6645 3.26397C13.0484 3.26397 12.5489 3.76342 12.5489 4.37951C12.5489 4.99561 13.0484 5.49505 13.6645 5.49505Z" fill="url(#paint2_linear)"/>
<defs>
<linearGradient id="paint0_linear" x1="13.6645" y1="17.9476" x2="13.6645" y2="0.139807" gradientUnits="userSpaceOnUse">
<stop stop-color="#E09B3D"/>
<stop offset="0.3" stop-color="#C74C4D"/>
<stop offset="0.6" stop-color="#C21975"/>
<stop offset="1" stop-color="#7024C4"/>
</linearGradient>
<linearGradient id="paint1_linear" x1="13.6645" y1="17.9476" x2="13.6645" y2="0.139807" gradientUnits="userSpaceOnUse">
<stop stop-color="#E09B3D"/>
<stop offset="0.3" stop-color="#C74C4D"/>
<stop offset="0.6" stop-color="#C21975"/>
<stop offset="1" stop-color="#7024C4"/>
</linearGradient>
<linearGradient id="paint2_linear" x1="13.6645" y1="17.9476" x2="13.6645" y2="0.139807" gradientUnits="userSpaceOnUse">
<stop stop-color="#E09B3D"/>
<stop offset="0.3" stop-color="#C74C4D"/>
<stop offset="0.6" stop-color="#C21975"/>
<stop offset="1" stop-color="#7024C4"/>
</linearGradient>
</defs>
</svg>
