<svg xmlns="http://www.w3.org/2000/svg" width="479.7" height="435.8" viewBox="0 0 479.7 435.8"><path d="M472.6 1c-49.1 35 14.4 171.7 5.2 191.6-3.3 7.1-8.1 15-16.8 14.6-10.5-.4-9.4-12.9-3.8-13 5.6-.1.5 10.1-.2 11.2-7.2 9.8-18.3 16.2-30.5 17.4-5.1.5-79.5-1.8-145.7 37.5-66.2 39.4-39.5 71.1-35.9 72.6 5 2.1 13.6.6 8.1-13.1-7.8-19.7-75.9-47.9-114.6-21.3-34 23.4-22.3 41.4-10.6 35.4 11.7-6-9.9-36.8-35.3-21.3-25.4 15.5-102.3 74-90.2 122.1" fill="none" stroke="#41a1da" stroke-width="2" stroke-linecap="round"/></svg>